<mxfile host="app.diagrams.net" modified="2023-09-13T03:43:19.607Z" agent="Mozilla/5.0 (Windows NT 10.0; Win64; x64) AppleWebKit/537.36 (KHTML, like Gecko) Chrome/115.0.0.0 Safari/537.36" version="21.6.5" etag="HUMGE5JZG2mrgh_OTkGl" type="github">
  <diagram name="第 1 页" id="FAnIuLgTCHDIlc2Tidce">
    <mxGraphModel>
      <root>
        <mxCell id="0" />
        <mxCell id="1" parent="0" />
      </root>
    </mxGraphModel>
  </diagram>
</mxfile>
